<?xml version="1.0" encoding="us-ascii" standalone="no"?><svg xmlns="http://www.w3.org/2000/svg" xmlns:xlink="http://www.w3.org/1999/xlink" contentStyleType="text/css" height="311px" preserveAspectRatio="none" style="width:942px;height:311px;background:#FFFFFF;" version="1.1" viewBox="0 0 942 311" width="942px" zoomAndPan="magnify"><defs/><g><!--cluster Portal--><g id="cluster_Portal"><rect fill="none" height="196" rx="2.5" ry="2.5" style="stroke:#181818;stroke-width:1.0;" width="138" x="210.0047" y="7"/><text fill="#000000" font-family="sans-serif" font-size="14" font-weight="bold" lengthAdjust="spacing" textLength="50" x="254.0047" y="21.9951">Portal</text></g><g id="elem_OAuth"><ellipse cx="279.1499" cy="65.1209" fill="#F1F1F1" rx="43.6452" ry="14.6209" style="stroke:#181818;stroke-width:0.5;"/><text fill="#000000" font-family="sans-serif" font-size="14" lengthAdjust="spacing" textLength="45" x="253.6499" y="68.8684">OAuth</text></g><g id="elem_Server"><ellipse cx="279.1422" cy="129.1391" fill="#F1F1F1" rx="45.1374" ry="14.6391" style="stroke:#181818;stroke-width:0.5;"/><text fill="#000000" font-family="sans-serif" font-size="14" lengthAdjust="spacing" textLength="47" x="252.6422" y="132.8867">Server</text></g><!--entity User--><g id="elem_User"><ellipse cx="279.0047" cy="262.5" fill="#F1F1F1" rx="4.5" ry="4.5" style="stroke:#181818;stroke-width:0.5;"/><path d="M266.5047,269 L266.5047,274 L276.0047,274 L276.0047,276.2574 L266.5047,285.7574 L270.7474,290 L279.0047,281.7426 L287.2621,290 L291.5047,285.7574 L282.0047,276.2574 L282.0047,274 L291.5047,274 L291.5047,269 L266.5047,269 " fill="#F1F1F1" style="stroke:#181818;stroke-width:0.5;"/><text fill="#000000" font-family="sans-serif" font-size="14" lengthAdjust="spacing" textLength="31" x="263.5047" y="303.4951">User</text></g><g id="elem_App_Cliente"><ellipse cx="549.6058" cy="225.1202" fill="#F1F1F1" rx="68.6011" ry="16.1202" style="stroke:#181818;stroke-width:0.5;"/><text fill="#000000" font-family="sans-serif" font-size="14" lengthAdjust="spacing" textLength="89" x="502.1058" y="228.8678">App_Cliente</text></g><g id="elem_GMN5"><path d="M679.0047,197.5 L679.0047,221 L618.3037,225 L679.0047,229 L679.0047,252.8984 A0,0 0 0 0 679.0047,252.8984 L935.0047,252.8984 A0,0 0 0 0 935.0047,252.8984 L935.0047,207.5 L925.0047,197.5 L679.0047,197.5 A0,0 0 0 0 679.0047,197.5 " fill="#FEFFDD" style="stroke:#181818;stroke-width:0.5;"/><path d="M925.0047,197.5 L925.0047,207.5 L935.0047,207.5 L925.0047,197.5 " fill="#FEFFDD" style="stroke:#181818;stroke-width:0.5;"/><text fill="#000000" font-family="sans-serif" font-size="13" lengthAdjust="spacing" textLength="185" x="685.0047" y="214.5669">Actualizacion Datos Paciente</text><text fill="#000000" font-family="sans-serif" font-size="13" lengthAdjust="spacing" textLength="235" x="685.0047" y="229.6997">Consulta por citas pasadas y futuras</text><text fill="#000000" font-family="sans-serif" font-size="13" lengthAdjust="spacing" textLength="219" x="685.0047" y="244.8325">Consulta Episodios Hospitalizaci&#243;n</text></g><!--link User to App_Cliente--><g id="link_User_App_Cliente"><path d="M294.8167,280.8595 C324.6807,278.355 394.1247,271.4921 451.0047,258 C470.2357,253.4383 491.0487,246.6586 508.4877,240.4288 " fill="none" id="User-to-App_Cliente" style="stroke:#0000FF;stroke-width:2.0;"/><polygon fill="#0000FF" points="513.3127,238.6886,503.4893,237.9808,508.6095,240.3857,506.2046,245.5059,513.3127,238.6886" style="stroke:#0000FF;stroke-width:2.0;"/><text fill="#0000FF" font-family="sans-serif" font-size="13" lengthAdjust="spacing" textLength="24" x="399.5047" y="254.0669">Uso</text></g><!--link App_Cliente to Portal--><g id="link_App_Cliente_Portal"><path d="M487.2107,231.6817 C453.0557,233.9982 409.8977,234.5904 372.0047,228 C351.2747,224.3946 329.042,216.5396 311.6258,209.3977 C307.2718,207.6122 303.2188,205.8713 299.5656,204.2525 C298.6523,203.8478 297.764,203.4508 296.9022,203.0625 " fill="none" id="App_Cliente-to-Portal" style="stroke:#0000FF;stroke-width:2.0;"/><polygon fill="#0000FF" points="296.9022,203.0625,303.4651,210.4062,301.461,205.1162,306.7509,203.1121,296.9022,203.0625" style="stroke:#0000FF;stroke-width:2.0;"/><text fill="#0000FF" font-family="sans-serif" font-size="13" lengthAdjust="spacing" textLength="77" x="373.0047" y="224.0669">Transacci&#243;n</text></g><!--link Portal to App_Cliente--><g id="link_Portal_App_Cliente"><path d="M348.2552,198.0263 C349.3372,198.0899 350.4266,198.1546 351.5232,198.2206 C355.9093,198.4845 360.4081,198.7677 364.993,199.0716 C374.1626,199.6792 383.6761,200.3691 393.3186,201.15 C412.6037,202.7118 432.405,204.638 451.0047,207 C464.5397,208.7188 479.0407,211.0989 492.6117,213.566 " fill="none" id="Portal-to-App_Cliente" style="stroke:#008000;stroke-width:2.0;"/><polygon fill="#008000" points="497.5657,214.4778,489.4392,208.9137,492.6484,213.5721,487.99,216.7814,497.5657,214.4778" style="stroke:#008000;stroke-width:2.0;"/><text fill="#008000" font-family="sans-serif" font-size="13" lengthAdjust="spacing" textLength="77" x="373.0047" y="195.0669">Transacci&#243;n</text></g><!--link Portal to OAuth--><g id="link_Portal_OAuth"><path d="M209.9486,200.8793 C209.2636,200.8815 208.5757,200.8819 207.8851,200.8806 C206.5039,200.8779 205.1119,200.8681 203.7099,200.8507 C198.102,200.781 192.3346,200.5891 186.4647,200.2439 C139.5055,197.4818 85.9827,184.9028 55.0047,146.5 C6,85.749 150.7927,70.277 230.4207,66.34 " fill="none" id="Portal-to-OAuth" style="stroke:#181818;stroke-width:1.0;stroke-dasharray:7.0,7.0;"/><polygon fill="#181818" points="235.5687,66.097,226.3901,62.5257,230.5743,66.3327,226.7673,70.5169,235.5687,66.097" style="stroke:#181818;stroke-width:1.0;"/><text fill="#000000" font-family="sans-serif" font-size="13" lengthAdjust="spacing" textLength="157" x="28.0047" y="142.5669">Interceptor de seguridad</text></g><!--link Server to Portal--><g id="link_Server_Portal"><path d="M279.0047,143.699 C279.0047,161.835 279.0047,190.758 279.0047,194.579 " fill="none" id="Server-to-Portal" style="stroke:#181818;stroke-width:1.0;stroke-dasharray:7.0,7.0;"/><polygon fill="#181818" points="279.0047,194.579,283.0047,185.579,279.0047,189.579,275.0047,185.579,279.0047,194.579" style="stroke:#181818;stroke-width:1.0;"/><text fill="#000000" font-family="sans-serif" font-size="13" lengthAdjust="spacing" textLength="64" x="235.5047" y="173.6369">Responde</text></g><!--SRC=[VP71JW8n48Rl-nIJS843FC2Ia10qmPD4v6o6TbWQQwTffoeQdyf7yCMSPI6kcd1ecixy_zzlslpeGiI4Ju16EAtbu0cMx3s_GELf9o0CoJLx0UiI6N4SgdgJATKm7izWE8_nOU4T1Q4H3BQ-qDIxG9CjUpiLUfMwhG503PlCLM2XKnxlVhihWBcHWjwzeT5hu0g5CwpqqFQrlU2GYnU4o0cC4ymGCQFL_G2x8YLXxikkeyjidOOiEKVLTz5Vdw6YOA5bgTgPC3GwzOgJAk1T4q1NoMGm4_GGjJgydHVP7rb_wiUNEDalFy5zmf3HT0oQrfb6C9cTarLqev79KDJ_04kGgId9MRIjOKtfcL9dE9jhkACSELYgFlgXBLMVSj0ael2NxLZy1_SD]--></g></svg>